<?xml version="1.0" encoding="UTF-8"?>
<svg xmlns="http://www.w3.org/2000/svg" version="1.1" viewBox="0 0 50 50">
  <defs>
    <style>
      .cls-1 {
        fill: #70706e;
      }

      .cls-2 {
        fill: #098041;
      }

      .cls-3 {
        fill: #3d3d3c;
      }

      .cls-4 {
        fill: #e97626;
      }
    </style>
  </defs>
  <!-- Generator: Adobe Illustrator 28.6.0, SVG Export Plug-In . SVG Version: 1.2.0 Build 709)  -->
  <g>
    <g id="Layer_1">
      <g>
        <g>
          <path class="cls-3" d="M1.4,31.1h.4l-.3,1.4c0,.2,0,.4,0,.5,0,.1.2.2.4.2s.3,0,.5-.2c.1-.1.2-.3.3-.5l.3-1.4h.4l-.3,1.4c0,.3-.2.5-.4.7-.2.2-.4.2-.7.2s-.5,0-.6-.2-.1-.4,0-.7l.3-1.4Z"/>
          <path class="cls-3" d="M3.2,33.4l.6-2.4,1.1,1.4s0,0,0,.1c0,0,0,0,0,.2l.4-1.6h.3l-.6,2.4-1.1-1.4s0,0,0-.1c0,0,0,0,0-.1l-.4,1.6h-.3Z"/>
          <path class="cls-3" d="M5.7,33.4l.5-2.3h.4l-.5,2.3h-.4Z"/>
          <path class="cls-3" d="M6.6,33.4l.5-2.3h1.2v.3h-1v.6c-.1,0,.7,0,.7,0v.3h-1l-.3,1.1h-.4Z"/>
          <path class="cls-3" d="M8.2,33.4l.5-2.3h.4l-.5,2.3h-.4Z"/>
          <path class="cls-3" d="M9.1,33.4l.5-2.3h1.2v.3h-1v.6c-.1,0,.7,0,.7,0v.3h-1l-.2.7h.9v.3h-1.3Z"/>
          <path class="cls-3" d="M10.8,33.4l.5-2.3h.5c.3,0,.5,0,.7,0,.1,0,.2,0,.3.2.1.1.2.2.2.4,0,.2,0,.3,0,.5,0,.2-.1.4-.2.5-.1.2-.2.3-.4.4-.1,0-.2.1-.4.2-.1,0-.3,0-.6,0h-.6ZM11.2,33h.3c.2,0,.3,0,.4,0,0,0,.2,0,.2-.1.1,0,.2-.2.3-.3,0-.1.1-.2.2-.4,0-.1,0-.3,0-.4,0-.1,0-.2-.1-.3,0,0-.1,0-.2-.1,0,0-.2,0-.4,0h-.3l-.4,1.6Z"/>
          <path class="cls-3" d="M14.6,32.4l-.2,1h-.3l.5-2.3h.6c.2,0,.3,0,.4,0,0,0,.1,0,.2,0,0,0,0,.1.1.2,0,0,0,.2,0,.3,0,.1,0,.2-.1.3,0,0-.1.2-.2.2,0,0-.1,0-.2,0,0,0-.2,0-.4,0h-.2ZM14.7,32h0c.2,0,.3,0,.4,0,0,0,.1-.1.2-.2,0-.1,0-.2,0-.3,0,0-.2,0-.4,0h0l-.2.6Z"/>
          <path class="cls-3" d="M17,33.4v-.6h-1l-.4.6h-.4l1.7-2.4.5,2.4h-.4ZM16.2,32.5h.6v-.5c-.1,0-.1,0-.1-.1,0,0,0,0,0-.1,0,0,0,0,0,.1,0,0,0,0,0,.1l-.4.5Z"/>
          <path class="cls-3" d="M17.9,33.4l.3-1-.5-1.2h.4l.3.8s0,0,0,0c0,0,0,0,0,.1,0,0,0,0,0-.1,0,0,0,0,0,0l.7-.8h.4l-1.1,1.2-.3,1h-.4Z"/>
          <path class="cls-3" d="M21.4,32.2s0,0,0-.1c0,0,0-.1,0-.2,0,0,0,.1,0,.2,0,0,0,.1-.1.2l-.9,1.2-.3-1.2c0,0,0-.1,0-.1,0,0,0,0,0-.1,0,0,0,0,0,.2,0,0,0,.1,0,.2l-.5,1.1h-.3l1.1-2.4.3,1.4s0,0,0,.1c0,0,0,.1,0,.2,0,0,0-.1.2-.3,0,0,0,0,0,0l1-1.4v2.4h-.4v-1.1Z"/>
          <path class="cls-3" d="M22,33.4l.5-2.3h1.2v.3h-1v.6c-.1,0,.7,0,.7,0v.3h-1l-.2.7h.9v.3h-1.3Z"/>
          <path class="cls-3" d="M23.7,33.4l.6-2.4,1.1,1.4s0,0,0,.1c0,0,0,0,0,.2l.4-1.6h.3l-.6,2.4-1.1-1.4s0,0,0-.1c0,0,0,0,0-.1l-.4,1.6h-.3Z"/>
          <path class="cls-3" d="M27.4,31.4l-.5,2h-.4l.5-2h-.6v-.3h1.6v.3h-.7Z"/>
          <path class="cls-3" d="M27.8,32.9h.3s0,0,0,0c0,0,.1,0,.3,0s.2,0,.3,0c0,0,.1-.1.2-.2,0-.1,0-.3-.2-.4,0,0,0,0,0,0-.2-.1-.4-.2-.4-.3,0-.1,0-.2,0-.4,0-.2.1-.3.3-.5.2-.1.3-.2.5-.2s.3,0,.4,0c0,0,.1.2.2.3h-.3c0,0,0,0-.1,0,0,0-.1,0-.2,0,0,0-.2,0-.3,0,0,0-.1.1-.1.2,0,.1,0,.3.3.4,0,0,0,0,0,0,.2.1.3.2.4.3,0,.1,0,.2,0,.4,0,.2-.2.4-.3.5-.2.1-.4.2-.6.2s-.3,0-.4-.1c-.1,0-.2-.2-.2-.4Z"/>
          <path class="cls-3" d="M30.5,33.4l.5-2.3h.4l-.5,2.3h-.4Z"/>
          <path class="cls-3" d="M31.3,33.4l.6-2.4,1.1,1.4s0,0,0,.1c0,0,0,0,0,.2l.4-1.6h.3l-.6,2.4-1.1-1.4s0,0,0-.1c0,0,0,0,0-.1l-.4,1.6h-.3Z"/>
          <path class="cls-3" d="M35.1,31.4l-.5,2h-.4l.5-2h-.6v-.3h1.6v.3h-.7Z"/>
          <path class="cls-3" d="M35.4,33.4l.5-2.3h1.3v.3h-1v.6c-.1,0,.7,0,.7,0v.3h-1l-.2.7h.9v.3h-1.3Z"/>
          <path class="cls-3" d="M37.7,32.4l-.2,1h-.3l.5-2.3h.5c.1,0,.3,0,.3,0,0,0,.1,0,.2,0,0,0,0,.1.1.2,0,0,0,.2,0,.3,0,.2-.1.3-.2.4-.1.1-.3.2-.4.2l.5,1h-.4l-.5-1h0ZM37.8,32.1h0c.2,0,.3,0,.4,0,0,0,.1-.1.2-.2,0-.1,0-.2,0-.3,0,0-.2,0-.4,0h0l-.2.7Z"/>
          <path class="cls-3" d="M38.9,33.4l.5-2.3h1.2v.3h-1v.6c-.1,0,.7,0,.7,0v.3h-1l-.3,1.1h-.4Z"/>
          <path class="cls-3" d="M41.9,33.4v-.6h-1l-.4.6h-.4l1.7-2.4.5,2.4h-.4ZM41.1,32.5h.6v-.5c-.1,0-.1,0-.1-.1,0,0,0,0,0-.1,0,0,0,0,0,.1,0,0,0,0,0,.1l-.4.5Z"/>
          <path class="cls-3" d="M44.6,31.6c0,0-.2-.2-.3-.2-.1,0-.2,0-.3,0-.2,0-.5,0-.7.2-.2.2-.3.4-.4.6,0,.2,0,.5,0,.6.1.2.3.2.5.2s.3,0,.4,0c.1,0,.3-.1.4-.2v.4c-.2,0-.3.1-.5.2-.1,0-.3,0-.4,0s-.3,0-.5,0c-.1,0-.2-.1-.3-.3,0-.1-.1-.2-.2-.4,0-.1,0-.3,0-.5,0-.2.1-.3.2-.5,0-.1.2-.3.3-.4.1-.1.3-.2.4-.3.2,0,.3,0,.5,0s.3,0,.4,0c.1,0,.2,0,.3.2v.4Z"/>
          <path class="cls-3" d="M44.7,33.4l.5-2.3h1.2v.3h-1v.6c-.1,0,.7,0,.7,0v.3h-1l-.2.7h.9v.3h-1.3Z"/>
        </g>
        <g>
          <g>
            <path class="cls-1" d="M38,29.1h-2.5l3.5-12.6h2.5l-3.5,12.6Z"/>
            <path class="cls-1" d="M36.7,16.9c-.2-.2-.4-.4-.8-.4h-13.8l-.7,2.5h12.5l-.7,2.6h-10s-2.5,0-2.5,0l-2.1,7.5h2.5l1.4-5h11.3c.4,0,.7-.1,1-.4.3-.2.5-.5.6-.9l1.4-5c.1-.4,0-.7,0-.9Z"/>
            <path class="cls-1" d="M17.2,28.3c-.1.5-.6.8-1.1.8H3.2c-.4,0-.6-.1-.8-.4-.2-.2-.2-.5-.1-.9l3.1-11.3h2.5l-2.8,10.1h10l2.8-10.1h2.5l-3.3,11.7Z"/>
          </g>
          <g>
            <polygon class="cls-2" points="45.8 16.5 49 22.8 42.3 29.1 45.8 16.5"/>
            <polygon class="cls-4" points="43.6 16.5 46.8 22.8 40.1 29.1 43.6 16.5"/>
          </g>
        </g>
      </g>
    </g>
  </g>
</svg>